:SAMPLES-PER-SECOND 30
:FULLY-SPECIFIED
:DEGREES
330
root  34.76507833 36.51014013 -14.86340771 8.201143265 -3.708765745 3.727304935
lowerback  -7.816689968 -0.589951992 -0.3968935311
upperback  -3.622950077 -0.3585500121 -3.00454998
thorax  0.6222119927 -0.04381899908 -2.904350042
lowerneck  -14.35330009 2.616990089 2.348870039
upperneck  17.63240051 2.67140007 4.045700073
head  7.79542017 1.984640002 1.260530114
lclavicle  0 -4.497500157e-015 -2.743230041e-014
lhumerus  -47.12689972 27.41200066 66.42449951
lradius  5.228657756e-007 -6.507048965e-006 31.42840004
lwrist  4.824992743e-007 -3.790274832e-007 -25.07930183
lhand  -0 -36.74140167 -10.61260033
lfingers  90 7.125020027 -90
lthumb  94.72866131 -25.45513616 100.893747
rclavicle  0 -4.497500157e-015 -2.743230041e-014
rhumerus  -59.47689819 -26.38459778 -45.86660385
rradius  -5.16745672e-007 2.214343908e-008 78.05470276
rwrist  -0.0001064338358 0.02974390797 -176.8410034
rhand  -1.773972787e-031 5.581369877 -7.289599895
rfingers  -90 -7.125020027 -90
rthumb  -84.66738218 -8.818441597 -58.66421958
rfemur  -11.91676998 15.70857143 13.29999065
rtibia  -1.411461473 -0.6901214719 21.19706726
rfoot  -0.01532688364 -21.38081169 -36.89582825
rtoes  4.023006265 19.60745799 -101.836841
lfemur  -7.476217747 -17.52219772 -20.55992508
ltibia  2.953844786 -0.7685139775 14.2363205
lfoot  0.8670867085 -23.76794243 37.06275177
ltoes  -8.521949191 -18.16118268 -115.6754873
331
root  34.76239302 36.5095484 -14.86074943 8.183607101 -3.655925989 3.706303358
lowerback  -7.850029945 -0.5761530399 -0.4062190652
upperback  -3.607969999 -0.3381170034 -3.014839888
thorax  0.6570770144 -0.03326779976 -2.908390045
lowerneck  -14.40670013 2.648109913 2.44520998
upperneck  17.64319992 2.697829962 4.002009869
head  7.810629845 1.999539971 1.234459996
lclavicle  0 -4.497500157e-015 -2.743230041e-014
lhumerus  -47.0625 27.62999916 66.30999756
lradius  5.228657756e-007 -6.507048965e-006 31.27719879
lwrist  4.824992743e-007 -3.790274832e-007 -25.31780052
lhand  -4.409350951e-031 -36.79090118 -10.59700012
lfingers  90 7.125020027 -90
lthumb  94.74855233 -25.43812581 100.9453354
rclavicle  0 -4.497500157e-015 -2.743230041e-014
rhumerus  -59.22710037 -26.62560081 -46.24599457
rradius  -5.16745672e-007 2.214343908e-008 76.97419739
rwrist  -0.0001064338358 0.02974390797 -176.1620026
rhand  -1.773667807e-031 5.479629993 -7.469979763
rfingers  -90 -7.125020027 -90
rthumb  -84.78660565 -8.657537158 -58.77780028
rfemur  -11.87530804 15.71922779 13.33529568
rtibia  -1.395912886 -0.6542861462 21.1798954
rfoot  -0.01980820857 -21.3433075 -36.94091034
rtoes  4.019132651 19.60822237 -101.825298
lfemur  -7.372487545 -17.53378105 -20.56652069
ltibia  3.007361412 -0.7293452621 14.13009548
lfoot  0.8751950264 -23.7942543 37.0937233
ltoes  -8.56908534 -18.13957707 -115.8268012
332
root  34.75821788 36.50888158 -14.8573117 8.161218643 -3.577973366 3.675249338
lowerback  -7.875150204 -0.5708199143 -0.4314934015
upperback  -3.604079962 -0.3271760046 -3.023139954
thorax  0.6756500006 -0.02693920024 -2.902050018
lowerneck  -14.42819977 2.664550066 2.508140087
upperneck  17.63050079 2.708319902 3.985759974
head  7.811560154 2.006789923 1.22013998
lclavicle  0 -4.497500157e-015 -2.743230041e-014
lhumerus  -46.96369934 27.78269958 66.23629761
lradius  5.228657756e-007 -6.507048965e-006 31.1167984
lwrist  4.824992743e-007 -3.790274832e-007 -25.45870018
lhand  -4.406155244e-031 -36.73529816 -10.62880039
lfingers  90 7.125020027 -90
lthumb  94.72919349 -25.47123695 100.8886753
rclavicle  0 -4.497500157e-015 -2.743230041e-014
rhumerus  -59.04550171 -26.97870064 -46.56119919
rradius  -5.16745672e-007 2.214343908e-008 75.93090057
rwrist  -0.0001064338358 0.02974390797 -174.977005
rhand  -1.773999677e-031 5.590250015 -7.348499775
rfingers  -90 -7.125020027 -90
rthumb  -84.69622623 -8.768715571 -58.66026416
rfemur  -11.81255245 15.77210522 13.38115597
rtibia  -1.371484995 -0.5931646824 21.1440239
rfoot  -0.0240624547 -21.26141548 -37.04695892
rtoes  4.007831029 19.61044811 -101.7916226
lfemur  -7.330839157 -17.54970741 -20.53090096
ltibia  3.007390738 -0.6963808537 14.11330795
lfoot  0.8572790623 -23.84873581 37.0419693
ltoes  -8.56872881 -18.13974105 -115.8256561
333
root  34.75430106 36.50819673 -14.85387096 8.139586449 -3.514336348 3.66627264
lowerback  -7.885840416 -0.5150859952 -0.3098217547
upperback  -3.602319956 -0.2571420074 -3.101340055
thorax  0.6852110028 0.007661039941 -3.046210051
lowerneck  -14.44190025 2.653589964 2.588959932
upperneck  17.59129906 2.669799805 4.020329952
head  7.802609921 1.997179985 1.213849902
lclavicle  0 -4.497500157e-015 -2.743230041e-014
lhumerus  -46.79449844 27.55270004 66.30940247
lradius  5.228657756e-007 -6.507048965e-006 31.09080124
lwrist  4.824992743e-007 -3.790274832e-007 -25.32570076
lhand  -4.40590283e-031 -36.73089981 -10.68789959
lfingers  90 7.125020027 -90
lthumb  94.73950072 -25.52942615 100.8892902
rclavicle  0 -4.497500157e-015 -2.743230041e-014
rhumerus  -58.91339874 -27.31780052 -46.88650131
rradius  -5.16745672e-007 2.214343908e-008 74.72350311
rwrist  -0.0001064338358 0.02974390797 -174.5330048
rhand  -1.774297528e-031 5.687670231 -7.568950176
rfingers  -90 -7.125020027 -90
rthumb  -84.7888736 -8.587147255 -58.58279321
rfemur  -11.76512718 15.74120426 13.41396809
rtibia  -1.361559987 -0.5920473933 21.13537407
rfoot  -0.02685159445 -21.29922867 -37.06868744
rtoes  4.028300588 19.60641202 -101.8526183
lfemur  -7.266639233 -17.529459 -20.53072548
ltibia  3.039250135 -0.663852334 14.0489893
lfoot  0.848143816 -23.88397026 36.99781799
ltoes  -8.519483323 -18.16230886 -115.6675763
334
root  34.75104204 36.50853615 -14.85295934 8.141901016 -3.464282751 3.653034449
lowerback  -7.853360176 -0.5013250709 -0.2971007228
upperback  -3.617710114 -0.2400079966 -3.102430105
thorax  0.6521580219 0.01616290025 -3.052850008
lowerneck  -14.46479988 2.656990051 2.592230082
upperneck  17.6147995 2.669009924 4.046639919
head  7.814249992 2.000999928 1.222909927
lclavicle  0 -4.497500157e-015 -2.743230041e-014
lhumerus  -46.75839996 27.43639946 66.39170074
lradius  5.228657756e-007 -6.507048965e-006 31.1065979
lwrist  4.824992743e-007 -3.790274832e-007 -25.2208004
lhand  -4.405151386e-031 -36.71780014 -10.72480011
lfingers  90 7.125020027 -90
lthumb  94.74111642 -25.56621247 100.8786579
rclavicle  0 -4.497500157e-015 -2.743230041e-014
rhumerus  -58.68050385 -27.5585022 -47.14839554
rradius  -5.16745672e-007 2.214343908e-008 73.34570313
rwrist  -0.0001064338358 0.02974390797 -174.5820007
rhand  -1.775042532e-031 5.924220085 -7.610159874
rfingers  -90 -7.125020027 -90
rthumb  -84.75395879 -8.568310363 -58.35563334
rfemur  -11.74270725 15.73956966 13.44073677
rtibia  -1.355312943 -0.5900626779 21.11278152
rfoot  -0.02547248639 -21.30928612 -37.10106659
rtoes  4.045141677 19.60307522 -101.9028109
lfemur  -7.285794735 -17.55698967 -20.4985218
ltibia  3.026605606 -0.6695739627 14.07317829
lfoot  0.8318606615 -23.86787987 36.95031357
ltoes  -8.50423118 -18.16926565 -115.6186548
335
root  34.74823358 36.50887557 -14.85068404 8.145628929 -3.409568787 3.631751537
lowerback  -7.825960636 -0.4900230169 -0.3066029251
upperback  -3.633970022 -0.2255409956 -3.082099915
thorax  0.6211699843 0.0234044008 -3.024970055
lowerneck  -14.45969963 2.647749901 2.516109943
upperneck  17.61930084 2.664969921 4.096419811
head  7.812809944 1.999349952 1.251350045
lclavicle  0 -4.497500157e-015 -2.743230041e-014
lhumerus  -46.78120041 27.37619972 66.46640015
lradius  5.228657756e-007 -6.507048965e-006 31.13599968
lwrist  4.824992743e-007 -3.790274832e-007 -25.20409966
lhand  -4.406941955e-031 -36.74900055 -10.71310043
lfingers  90 7.125020027 -90
lthumb  94.75329061 -25.55360982 100.9109449
rclavicle  0 -4.497500157e-015 -2.743230041e-014
rhumerus  -58.54000092 -27.96769714 -47.28600311
rradius  -5.16745672e-007 2.214343908e-008 72.08319855
rwrist  -0.0001064338358 0.02974390797 -174.1210022
rhand  -3.550262549e-031 5.951759815 -7.67261982
rfingers  -90 -7.125020027 -90
rthumb  -84.78048671 -8.517052038 -58.33367559
rfemur  -11.71351433 15.72105885 13.47407532
rtibia  -1.345316172 -0.5560340881 21.07062721
rfoot  -0.01157973334 -21.23890114 -37.14285278
rtoes  4.064074663 19.59930653 -101.9592479
lfemur  -7.332371712 -17.61283302 -20.4470768
ltibia  2.986490011 -0.691550076 14.14422607
lfoot  0.8028105497 -23.84026146 36.87561417
ltoes  -8.513935239 -18.16484124 -115.6497786
336
root  34.74762684 36.51104124 -14.84971535 8.188206673 -3.381654024 3.59109807
lowerback  -7.816610813 -0.4007490575 -0.2439767867
upperback  -3.616810083 -0.1158910021 -3.054709911
thorax  0.6390820146 0.07599189878 -3.022830009
lowerneck  -14.43910027 2.562370062 2.190730095
upperneck  17.58069992 2.595319986 4.222119808
head  7.789390087 1.954939961 1.337059855
lclavicle  0 -4.497500157e-015 -2.743230041e-014
lhumerus  -46.70809937 27.31389999 66.69139862
lradius  5.228657756e-007 -6.507048965e-006 31.09869957
lwrist  4.824992743e-007 -3.790274832e-007 -25.30369949
lhand  -4.405300586e-031 -36.72040176 -10.72439957
lfingers  90 7.125020027 -90
lthumb  94.74225044 -25.56571091 100.8814038
rclavicle  0 -4.497500157e-015 -2.743230041e-014
rhumerus  -58.49380112 -28.42130089 -47.16270065
rradius  -5.16745672e-007 2.214343908e-008 70.73799896
rwrist  -0.0001064338358 0.02974390797 -173.8170013
rhand  -1.775242907e-031 5.986219883 -7.881830215
rfingers  -90 -7.125020027 -90
rthumb  -84.88329923 -8.341505645 -58.31643225
rfemur  -11.74000645 15.66813374 13.51037025
rtibia  -1.332779527 -0.5467101336 21.02789879
rfoot  0.009000883438 -21.21922874 -37.12812424
rtoes  4.099939364 19.59211694 -102.066185
lfemur  -7.486023426 -17.60357094 -20.3181057
ltibia  2.893007517 -0.6600962281 14.2966938
lfoot  0.8175298572 -23.95100594 36.86592865
ltoes  -8.506763157 -18.16811184 -115.6267749
337
root  34.74811944 36.51235686 -14.84394824 8.215281487 -3.312477589 3.566474676
lowerback  -7.81826973 -0.3792389631 -0.2614961267
upperback  -3.57656002 -0.08695250005 -3.075229883
thorax  0.6830710173 0.09000249952 -3.0318501
lowerneck  -14.47630024 2.552540064 2.247159958
upperneck  17.55060005 2.569329977 4.205530167
head  7.787610054 1.943609953 1.319630027
lclavicle  0 -4.497500157e-015 -2.743230041e-014
lhumerus  -46.54589844 27.19639969 66.7736969
lradius  5.228657756e-007 -6.507048965e-006 31.04360008
lwrist  4.824992743e-007 -3.790274832e-007 -25.33679962
lhand  -4.405300586e-031 -36.72040176 -10.72439957
lfingers  90 7.125020027 -90
lthumb  94.74225044 -25.56571091 100.8814038
rclavicle  0 -4.497500157e-015 -2.743230041e-014
rhumerus  -58.27950287 -28.86850166 -47.2939949
rradius  -5.16745672e-007 2.214343908e-008 69.31400299
rwrist  -0.0001064338358 0.02974390797 -173.4060059
rhand  -1.775242907e-031 5.986219883 -7.881830215
rfingers  -90 -7.125020027 -90
rthumb  -84.88329923 -8.341505645 -58.31643225
rfemur  -11.72472382 15.66000271 13.52313328
rtibia  -1.309368968 -0.5175207257 20.97459221
rfoot  0.02318594232 -21.15938759 -37.17401123
rtoes  4.099939364 19.59211694 -102.066185
lfemur  -7.418000221 -17.1314373 -20.31744385
ltibia  2.961759806 -0.4544990361 14.15178108
lfoot  0.7889114618 -24.33420372 36.50460052
ltoes  -8.506763157 -18.16811184 -115.6267749
